<svg version="1.2" xmlns="http://www.w3.org/2000/svg" viewBox="0 0 1024 1024" width="1024" height="1024">
	<defs>
		<clipPath clipPathUnits="userSpaceOnUse" id="cp1">
			<path d="m557.5 434c-33.46 0-60.5-27.04-60.5-60.5 0-33.46 27.04-60.5 60.5-60.5 33.46 0 60.5 27.04 60.5 60.5 0 33.46-27.04 60.5-60.5 60.5z"/>
		</clipPath>
	</defs>
	<style>
		.s0 { fill: #0046ad } 
		.s1 { fill: #fefefe } 
		.s2 { fill: #bd1178 } 
	</style>
	<g id="Logo scuro">
		<path id="Base" fill-rule="evenodd" class="s0" d="m512 1024c-283.14 0-512-228.86-512-512 0-283.14 228.86-512 512-512 283.14 0 512 228.86 512 512 0 283.14-228.86 512-512 512z"/>
		<path id="Sky" class="s1" d="m454.76 40.08c-181.42 23.49-325.59 135.8-392.54 306.42-12.69 31.86-23.22 71.01-23.22 85.86 0 27.26 31.32 39.41 51.03 19.7 5.13-5.4 9.44-14.58 13.76-30.23 32.67-116.09 106.65-212.48 205.73-267.55 26.45-14.58 77.21-33.75 110.69-41.85 28.07-6.48 35.09-7.02 89.9-7.29 51.57 0 62.9 0.81 85.85 5.94 82.35 18.63 147.95 53.46 204.91 108.53 58.59 56.43 98.01 122.03 120.95 200.87 4.32 14.58 9.72 28.88 12.42 31.85 13.77 15.12 41.04 11.07 48.6-7.02 5.13-12.41 2.16-30.77-12.96-75.59-47.25-142.82-147.68-248.11-287.26-302.1-66.41-25.65-157.39-36.45-227.86-27.54z"/>
		<path id="Top" class="s1" d="m652.01 207.73c-20.79 3.51-31.86 6.48-52.65 13.77-8.91 3.24-11.61 5.67-11.61 10.26 0 8.64 18.36 38.34 34.83 56.43 23.22 25.11 63.98 51.83 76.4 49.94 11.34-1.62 23.76-55.88 23.76-102.32 0-23.49-0.54-26.73-5.13-29.43-7.02-3.5-39.68-2.97-65.6 1.35z"/>
		<g clip-path="url(#cp1)">
			<path id="Oblo-1" fill-rule="evenodd" class="s1" d="m557.5 434c-33.46 0-60.5-27.04-60.5-60.5 0-33.46 27.04-60.5 60.5-60.5 33.46 0 60.5 27.04 60.5 60.5 0 33.46-27.04 60.5-60.5 60.5z"/>
			<path id="Oblo-2" fill-rule="evenodd" class="s2" d="m557 424c-27.65 0-50-22.35-50-50 0-27.65 22.35-50 50-50 27.65 0 50 22.35 50 50 0 27.65-22.35 50-50 50z"/>
		</g>
		<path id="Rocket" class="s1" d="m531.87 249.58c-55.62 28.08-108.26 71.27-141.74 115.55l-12.69 16.74-23.76 1.08c-52.91 2.43-89.63 24.03-113.66 67.22-15.66 27.54-27.54 72.63-22.14 82.89 3.78 7.02 9.18 7.02 61.29-0.27 22.95-3.24 43.47-4.86 45.63-4.05 3.24 1.35 4.05 4.05 2.97 10.53-1.35 9.72 1.08 16.19 10.79 26.72l6.75 7.02-11.61 16.47c-9.44 13.5-11.06 17.55-8.9 21.33 5.12 7.83 10.52 6.48 25.37-5.94l14.58-11.88 9.18 7.02c4.86 3.78 14.58 8.37 21.06 9.99 6.75 1.62 12.42 3.78 12.42 4.86 0.27 1.08-1.08 24.03-3.24 50.76-3.78 50.75-2.97 56.69 6.48 58.58 2.7 0.54 15.39-2.16 28.08-6.21 78.56-24.3 113.93-68.84 113.93-143.36v-16.47l19.97-17.54c42.12-36.99 76.14-81 100.71-130.4 15.38-30.51 25.37-56.16 22.94-59.67-1.08-1.62-12.69-7.83-25.64-14.31-17.55-8.37-29.16-16.46-44.01-30.5-18.63-17.82-40.23-47.79-46.71-65.07-4.05-10.8-11.61-9.45-48.05 8.91zm50.21 11.88c20.25 37.26 50.22 65.6 86.67 82.61 11.6 5.67 18.89 10.8 18.89 13.23 0 6.48-21.86 53.19-36.17 76.95-31.86 53.45-81 104.48-124.19 128.23-29.97 16.47-71.28 33.21-94.49 38.07l-15.93 3.24-14.31-15.93-14.04-15.66 16.47-14.58c39.15-34.55 61.28-61.55 61.28-75.32 0-18.9-17.01-22.95-34.01-8.1-13.5 11.88-32.13 31.86-51.84 55.35l-16.2 19.44-17.01-14.85c-9.18-7.83-18.89-14.58-21.05-14.58-2.43 0-25.38 2.43-51.03 5.67-32.67 4.32-47.52 5.13-49.41 3.24-4.05-4.05 6.21-43.47 16.74-64.8 16.74-34.55 40.23-56.42 69.93-65.87 16.2-4.86 53.99-9.72 53.99-6.75 0 1.08-4.05 9.99-9.18 19.98-12.42 24.57-23.22 60.2-25.11 82.07-1.35 15.66-1.08 18.36 2.7 18.36 2.43 0 6.75-4.59 9.45-10.26 8.64-16.74 38.34-99.89 38.34-106.91 0-15.93 62.37-80.72 105.29-109.61 24.57-16.74 73.71-42.93 80.18-43.2 1.62 0 7.83 8.91 14.04 19.98zm-218.14 166.58c-11.07 32.12-19.71 53.99-21.06 52.64-2.43-2.16 8.1-36.18 17.28-56.15 5.4-11.61 10.26-20.79 10.53-20.25 0.54 0.54-2.43 11.07-6.75 23.76zm93.41 49.94c3.24 8.37-8.64 26.19-35.36 52.38-34.29 33.74-37.53 36.17-44.82 32.39-2.97-1.62-5.4-4.32-5.4-6.21 0-4.58 41.31-53.72 58.86-70.19 14.04-12.96 23.75-15.93 26.72-8.37zm-107.18 69.93c8.91 9.17 8.91 9.71 4.32 14.3-4.32 4.32-4.86 4.32-11.34-2.97-6.21-7.28-8.91-20.78-4.32-20.78 1.08 0 6.21 4.32 11.34 9.45zm18.63 19.97c3.78 2.43 2.43 11.07-1.89 11.07-4.05 0-9.18-7.56-7.29-10.8 2.16-3.24 4.32-3.51 9.18-0.27zm175.76 8.91c-0.27 56.43-21.87 93.15-69.12 117.44-23.22 12.15-62.36 24.3-65.6 20.52-1.62-1.62 5.67-97.73 7.56-102.59 0.27-0.27 4.32-1.08 9.18-2.16 22.4-4.59 62.36-18.9 85.58-30.78 14.04-7.29 27.27-13.23 29.16-13.5 2.16-0.27 3.24 3.78 3.24 11.07zm-143.9 25.38c-2.16 2.43-14.85-2.97-23.49-9.72-6.75-5.4-6.75-5.4-1.35-9.45 4.86-3.78 5.94-3.24 15.93 6.48 5.94 5.94 9.99 11.61 8.91 12.69zm-43.47-17.55c1.62 2.97-16.47 21.06-21.6 21.33-3.24 0 0-7.29 7.29-16.2 6.48-8.37 11.07-9.99 14.31-5.13z"/>
		<path id="Land" class="s1" d="m936.43 504.44c-73.97 28.62-95.03 45.09-120.14 94.76-33.47 65.61-76.13 112.04-133.36 146.06-27 15.93-52.65 26.19-89.64 35.91-44.81 11.87-49.13 14.84-80.72 56.96-20.25 27.27-53.46 60.75-73.7 74.51-6.75 4.59-23.49 14.04-36.99 21.06-22.68 11.61-25.11 13.77-25.11 20.52 0 9.18 5.94 13.23 29.7 21.06 31.86 10.53 52.64 12.69 113.39 12.42 63.71 0 87.2-3.51 139.58-20.25 184.39-59.13 313.44-218.41 330.18-407.94 4.86-55.34 3.24-72.62-6.48-72.35-1.62 0.27-22.68 7.83-46.71 17.28zm44.28 31.86c-2.7 63.17-12.15 104.48-36.99 163.6-55.34 130.67-173.86 231.1-314.52 265.93-77.21 19.17-168.2 18.63-223.81-1.62-8.91-3.24-16.47-7.29-17.01-9.18-0.81-1.89 7.29-7.56 18.63-13.23 10.8-5.4 26.46-14.04 34.56-19.44 19.7-12.42 56.42-48.32 74.78-73.43 18.63-24.84 35.1-42.39 44.55-47.52 3.78-1.89 21.59-7.29 39.14-11.88 42.66-10.79 93.41-35.9 125-61.55 44.28-35.91 72.63-70.73 98.27-121.22 25.38-49.68 42.66-63.98 107.45-89.36 40.23-15.66 48.33-18.9 50.49-19.17 0.54-0.27 0.27 17.01-0.54 38.07z"/>
		<path id="Fire" class="s1" d="m286.46 558.43c-21.87 9.72-38.34 32.67-45.63 64.26-4.32 19.44-10.8 85.31-8.64 87.47 0.81 0.81 18.36-1.08 38.88-4.05 20.52-3.24 38.07-5.67 39.15-5.67 1.08 0-3.24 8.1-9.72 18.09-43.74 68.04-48.87 126.62-15.66 177.92 18.9 29.15 62.36 61.55 75.32 56.42 3.78-1.35 0.81-3.78-12.69-10.8-46.97-23.76-75.59-67.76-75.59-115.82 0-35.64 10.53-64.79 38.61-107.72 12.96-19.98 15.66-22.41 26.72-25.65 22.41-6.48 39.69-25.91 44.01-49.94 1.35-6.48 0.81-11.34-1.35-14.04-2.7-3.24-5.4-2.7-19.17 4.32l-15.66 8.37-14.85-4.32c-20.78-6.21-28.61-15.93-28.61-36.18 0-9.45 2.16-19.98 5.67-27.27 2.97-6.75 4.59-13.77 4.05-15.66-1.89-4.58-14.04-4.31-24.84 0.27zm12.42 8.91c0 1.35-1.89 7.02-4.05 12.96-5.13 14.31-5.13 28.62 0.27 41.85 4.86 11.88 13.23 19.17 28.89 24.03 8.9 2.97 9.98 4.32 9.98 12.15 0 5.67-2.97 12.95-7.82 19.7l-7.83 10.8-30.78 4.59c-16.74 2.43-34.02 5.13-38.34 6.21l-7.83 1.35 1.89-24.57c4.59-61.01 12.96-82.34 42.12-105.29 6.75-5.67 13.5-7.29 13.5-3.78zm68.57 87.75c-5.94 11.88-11.61 18.08-21.06 22.94-7.29 3.78-7.56 3.78-5.67-0.81 1.35-2.97 3.51-10.25 5.13-16.46 2.16-9.18 4.59-11.88 13.77-16.47 12.69-6.21 15.12-3.24 7.83 10.8z"/>
	</g>
</svg>